<svg xmlns="http://www.w3.org/2000/svg" xmlns:xlink="http://www.w3.org/1999/xlink" width="200" height="200" viewBox="0 0 200 200">
  <defs>
    <clipPath id="clip-path">
      <circle id="椭圆_673" data-name="椭圆 673" cx="100" cy="100" r="100" fill="none"/>
    </clipPath>
    <linearGradient id="linear-gradient" x1="0.5" y1="1.073" x2="0.5" y2="-0.073" gradientUnits="objectBoundingBox">
      <stop offset="0" stop-color="#ffe375"/>
      <stop offset="1" stop-color="#7ccfd6"/>
    </linearGradient>
  </defs>
  <g id="白露" transform="translate(-2628.273 -107)">
    <g id="组_457" data-name="组 457" transform="translate(2628.273 107)">
      <g id="组_456" data-name="组 456" clip-path="url(#clip-path)">
        <rect id="矩形_192" data-name="矩形 192" width="206.078" height="218.272" transform="translate(19.081 -30.399) rotate(9.754)" fill="url(#linear-gradient)"/>
        <text id="_" data-name=" " transform="translate(63.5 96.417)" font-size="1" font-family="SegoeUI, Segoe UI"><tspan x="0" y="0"> </tspan></text>
        <path id="路径_3508" data-name="路径 3508" d="M3198.267,632.525" transform="translate(-3055.769 -501.144)" fill="#d19c46"/>
        <g id="组_422" data-name="组 422" transform="translate(5.477 82.371)">
          <path id="路径_3509" data-name="路径 3509" d="M2707.354,561.55" transform="translate(-2693.06 -530.283)" fill="#f9ebe0"/>
          <g id="组_421" data-name="组 421">
            <g id="组_418" data-name="组 418" transform="translate(2.206)">
              <path id="路径_3510" data-name="路径 3510" d="M2889.941,539.38a59.823,59.823,0,0,0,12.271.746,67.72,67.72,0,0,1-13,.8S2887.612,540.151,2889.941,539.38Z" transform="translate(-2831.257 -513.656)" fill="#8f5621"/>
              <path id="路径_3511" data-name="路径 3511" d="M2667.708,436.538s1.144,5.82,3.333,8.308,7.959,10.5,9.153,15.222a33.614,33.614,0,0,1,.845,9.452l-8.705-1.592s.1-.5-.747-.746-.846-1.343-.7-1.791c0,0-1.293-.249-1.442-1.393,0,0-1.592,0-1-1.791,0,0-1.741-.4-1.442-2.686,0,0-1.443-.5-1.194-1.592,0,0-.9-.484-1.94-3.985a8.545,8.545,0,0,1-1.642-2.93,6.167,6.167,0,0,1-.9-3.184s-2.736-1.592-2.288-3.781l4.029,2.836s-3.532-2.637-3.283-4.726,3.383,2.089,3.383,2.089-2.836-3.283-1.244-5.074a46.322,46.322,0,0,1,3.731,4.129s-2.637-4.527-1.642-6.268.945,2.388,3.582,5.87C2667.608,442.906,2664.424,435.792,2667.708,436.538Z" transform="translate(-2659.002 -436.484)" fill="#fff6f0" stroke="#e8d8cd" stroke-miterlimit="10" stroke-width="1"/>
              <path id="路径_3512" data-name="路径 3512" d="M2752.276,465.538a6.484,6.484,0,0,0-3.408-1.866c-2.264-.5-3.93.124-4.427.622s-2.587,3.557-4.875,4.154-3.706,1.642-6.393,1.443-3.98-.522-4.377-.4-.3-2.263-1.642-4.3c0-2.189,1.492-10.944,1.492-10.944s.746-4.527,2.388-6.716,5.97-6.268,5.522-6.517-.746-1.045-3.482,1.144c0,0-6.115,3.459-5.92,12.088,0,0,1.393-11.389,2.885-13.579-.8-.946-3.184,1.441-3.98,5.57s-1.691,8.557-1.691,8.557.6-10.895,1.542-12.636-1.691-1.293-2.338,1.144-1.641,9.6-1.343,11.442c0,0-1.054-8.417-.054-10.825s-2.781-1.065-2.93,6.646,0,5.87,0,5.87-.132-10.3-.066-11.292-1.874-.1-1.874,5.223v5.771s-.1-5.074-1-4.577,0,6.567,0,6.567,0-3.482-.7-3.283-.995,1.94-.7,3.482-.3-2.836-.945-.746v1.194s-2.587,9.2-.348,12.685l-4.328-1.492-4.179.746-.746.746V472.8l1.714,2.836,5.052,1.841s4.029,2.089,11.79-1.293,17.162-7.164,19.451-7.76a65.811,65.811,0,0,1,8.606-1.692C2752.076,466.763,2752.276,465.538,2752.276,465.538Z" transform="translate(-2693.028 -439.466)" fill="#f9ebe0" stroke="#e8d8cd" stroke-miterlimit="10" stroke-width="1"/>
            </g>
            <g id="组_420" data-name="组 420" transform="translate(0 31.246)">
              <g id="组_419" data-name="组 419">
                <path id="路径_3513" data-name="路径 3513" d="M2738.135,589.832l.529.076Q2738.4,589.877,2738.135,589.832Z" transform="translate(-2716.146 -582.741)" fill="#28100c"/>
                <path id="路径_3514" data-name="路径 3514" d="M2753.977,589.9l.3-.044S2754.17,589.871,2753.977,589.9Z" transform="translate(-2728.027 -582.756)" fill="#28100c"/>
                <path id="路径_3515" data-name="路径 3515" d="M2743.681,590.03l-1.781.263-1.651-.237A14.467,14.467,0,0,0,2743.681,590.03Z" transform="translate(-2717.731 -582.889)" fill="#28100c"/>
                <path id="路径_3516" data-name="路径 3516" d="M2661.762,567.76l-.05-.2c-1.331.112-.995-.286-.995-.286a3.142,3.142,0,0,0,2.586-1.281c.3-.5-.647-.809-1.816-.224a5.081,5.081,0,0,0-1.492.97,2.455,2.455,0,0,1,1.542-1.753,3.191,3.191,0,0,0,1.4-1.027l-.008-.055h-.017a2.94,2.94,0,0,1-1.687.473h-.11c-.314.168-.6.262-.609.037a3.773,3.773,0,0,0-.886.2c.189-.523.9-.85,1.269-.99a4.4,4.4,0,0,1,2.062-1.167c.1-.038.176-.068.236-.09.037-.019.06-.036.064-.053a6.39,6.39,0,0,1,1.219-.846l-.646,1.07c.5.149,0,1.12,0,1.12l1.194.423c1.194.423.421,2.338.421,2.338,1.14-.156,1.345.6,2.042.97s.6-.075,3.258.821a9.316,9.316,0,0,0,1.427.35l-2.1-.3-2.561-.317a7.146,7.146,0,0,1-3.9.027l-13.431,4.179Z" transform="translate(-2650.179 -561.467)" fill="#28100c"/>
              </g>
              <path id="路径_3517" data-name="路径 3517" d="M2732.776,589.126l3.363.467,1.566-.186h0l.186.155c-1.371.4-3.245-.028-5.115-.435Z" transform="translate(-2712.127 -582.211)" fill="#28100c"/>
            </g>
          </g>
          <path id="路径_3518" data-name="路径 3518" d="M2698.138,530.426s-3.606,2.288-4.776,1.467a.793.793,0,0,1,0-.746s-1.766.423-1.094-1.244a1.471,1.471,0,0,1-.995-2.065s-1.542-.124-1.418-1.318c0,0-1.94-.373-1.07-1.219l-.225-.746s-1.442-.6-1.242-1.393l-.019-1.094s-1.449-.821-1.1-1.667a7,7,0,0,0,1.791-.622c.273-.274.472.448.448.8s.945.249.92.5-.473.821.323,1.244c0,0-.472,1.094.9,1.244,0,0-.6,1.07.323,1.094,0,0-.4,1.119.671.97,0,0,.273,1.467,1.418,1.119,0,0-.125,2.139,1.642,1.642,0,0-.2,1.542,1.094,1.169C2695.725,529.555,2695.526,531.62,2698.138,530.426Z" transform="translate(-2677.153 -498.911)" fill="#38201c"/>
          <path id="路径_3519" data-name="路径 3519" d="M2745.305,515.866v.879l-2.073-.763s-.8-.829.248-1.062Z" transform="translate(-2719.751 -495.312)" fill="#38201c"/>
          <path id="路径_3520" data-name="路径 3520" d="M2743.488,521.086l-1.857-.746s-.862-.1-.846.465l2.57.829Z" transform="translate(-2718.133 -499.37)" fill="#38201c"/>
          <path id="路径_3521" data-name="路径 3521" d="M2742.648,524.34l-2.7-.8s-.729.4.166,1.343l2.338.63A.707.707,0,0,1,2742.648,524.34Z" transform="translate(-2717.293 -501.779)" fill="#38201c"/>
          <path id="路径_3522" data-name="路径 3522" d="M2741.493,530.84l-2.322-.6s-1.078.382-.183,1.443l2.5.415S2741.1,531.288,2741.493,530.84Z" transform="translate(-2716.52 -506.803)" fill="#38201c"/>
          <path id="路径_3523" data-name="路径 3523" d="M2741.13,537.755l-2.4-.348s-.894.381-.455,1.061l2.859.564Z" transform="translate(-2716.157 -512.176)" fill="#38201c"/>
          <path id="路径_3524" data-name="路径 3524" d="M2740.471,543.957s-.315.414.1,1.409l-3.213-.348a.863.863,0,0,1,.379-1.443Z" transform="translate(-2715.365 -516.802)" fill="#38201c"/>
          <path id="路径_3525" data-name="路径 3525" d="M2741.7,551.07l-3.54-.331s-.54,1.111.373,1.476l3.449.431S2741.151,551.833,2741.7,551.07Z" transform="translate(-2716.044 -522.175)" fill="#38201c"/>
          <path id="路径_3526" data-name="路径 3526" d="M2743.619,558.516s.017.531.349.63a5.557,5.557,0,0,1-3.192.348s-.854-.68-.7-1.393Z" transform="translate(-2717.584 -527.697)" fill="#38201c"/>
          <path id="路径_3527" data-name="路径 3527" d="M2873.256,534.222a1.842,1.842,0,0,1-1.343.248c-.8-.149-.7-.746-1.119-.846a1.9,1.9,0,0,0-1.343,0,2.338,2.338,0,0,1-2.686-.348S2870.594,531.66,2873.256,534.222Z" transform="translate(-2812.618 -508.701)" fill="#b73818"/>
          <path id="路径_3528" data-name="路径 3528" d="M2855.944,542.083l-.721-.3s-1.617-1.095-2.736-.448a5.173,5.173,0,0,1-2.512.97,5.564,5.564,0,0,0-3.109,1.094c-1.393.92-2.487,1.542-2.487,1.542s3.606-1.269,4.9-1.517S2855.621,542.008,2855.944,542.083Z" transform="translate(-2795.828 -514.97)" fill="#38201c"/>
          <circle id="椭圆_640" data-name="椭圆 640" cx="0.427" cy="0.427" r="0.427" transform="translate(57.222 24.982)" fill="#38201c"/>
          <circle id="椭圆_641" data-name="椭圆 641" cx="0.11" cy="0.11" r="0.11" transform="translate(57.649 25.189)" fill="#fdf5ef"/>
        </g>
        <g id="组_455" data-name="组 455" transform="translate(18.095 72.552)">
          <g id="组_454" data-name="组 454">
            <path id="路径_3529" data-name="路径 3529" d="M2982.79,406.4s-12.071,20.851-21.251,25.4-38.738,17.5-42.718,14.685-5.119.129-5.119.129l2.091,4.047s-3.594,1.539-2.735,3.684c1.513,3.128,65.608-5.506,74.047-6.811s61.4-11.29,61.4-11.29l35.113-13.757-9.283-3.229-5.675,3.868s-39.633-1.354-43.882-2.544-33.611-14.005-35.582-15.924c.214-1.526.906-6.133-2.33-7.079s-5.316-.075-6.031,2.505,1.586,4.87,2.589,5.37Z" transform="translate(-2859.857 -397.21)" fill="#406b5e"/>
            <path id="路径_3530" data-name="路径 3530" d="M2913.456,530.183s11.818,12.425,35.064,16.92l118.463-10.881,17.038-37.9Z" transform="translate(-2860.256 -473.046)" fill="#406b5e"/>
            <path id="路径_3531" data-name="路径 3531" d="M3051.143,602.812l2.146,11.038,95.254-11.856V584.313Z" transform="translate(-2963.521 -537.537)" fill="#33564a"/>
            <path id="路径_3532" data-name="路径 3532" d="M2772.409,770.669l2.226,45.969,152.983-25.895,1.911-39.01Z" transform="translate(-2754.471 -663.102)" fill="#406b5e"/>
            <path id="路径_3533" data-name="路径 3533" d="M2961.415,612.726l-260.76,32.193v24.374l260.76-32.268Z" transform="translate(-2700.655 -558.846)" fill="#33564a"/>
            <path id="路径_3534" data-name="路径 3534" d="M3149.929,438.887l-15.276,22.362,50.008-9.54-28.927-13.821Z" transform="translate(-3026.154 -427.719)" fill="#33564a"/>
            <path id="路径_3535" data-name="路径 3535" d="M3192.828,426.491l6.225-.9.606.823-7,1.172Z" transform="translate(-3069.661 -418.496)" fill="#33564a"/>
            <path id="路径_3536" data-name="路径 3536" d="M2700.655,644.918v5.061l260.76-32.807v-4.446Z" transform="translate(-2700.655 -558.846)" fill="#406b5e"/>
            <g id="组_423" data-name="组 423" transform="translate(0.737 93.948)">
              <path id="矩形_193" data-name="矩形 193" d="M3.246,0h0A3.246,3.246,0,0,1,6.492,3.246v5.4a3.263,3.263,0,0,1-3.263,3.263h0A3.229,3.229,0,0,1,0,8.684V3.246A3.246,3.246,0,0,1,3.246,0Z" transform="translate(0.482 0) rotate(0.89)" fill="#465952" stroke="#202623" stroke-miterlimit="10" stroke-width="1"/>
              <ellipse id="椭圆_642" data-name="椭圆 642" cx="3.245" cy="2.569" rx="3.245" ry="2.569" transform="translate(0 7.501) rotate(-8.855)" fill="#122427" stroke="#202623" stroke-miterlimit="10" stroke-width="1"/>
            </g>
            <g id="组_424" data-name="组 424" transform="translate(9.139 92.848)">
              <path id="矩形_194" data-name="矩形 194" d="M3.246,0h0A3.246,3.246,0,0,1,6.492,3.246v5.4a3.263,3.263,0,0,1-3.263,3.263h0A3.229,3.229,0,0,1,0,8.684V3.246A3.246,3.246,0,0,1,3.246,0Z" transform="translate(0.483 0) rotate(0.89)" fill="#274238"/>
              <ellipse id="椭圆_643" data-name="椭圆 643" cx="3.245" cy="2.569" rx="3.245" ry="2.569" transform="translate(0 7.501) rotate(-8.855)" fill="#20352c"/>
            </g>
            <g id="组_425" data-name="组 425" transform="translate(17.541 91.747)">
              <path id="矩形_195" data-name="矩形 195" d="M3.246,0h0A3.246,3.246,0,0,1,6.492,3.246v5.4a3.263,3.263,0,0,1-3.263,3.263h0A3.229,3.229,0,0,1,0,8.684V3.246A3.246,3.246,0,0,1,3.246,0Z" transform="translate(0.482 0) rotate(0.89)" fill="#274238"/>
              <ellipse id="椭圆_644" data-name="椭圆 644" cx="3.245" cy="2.569" rx="3.245" ry="2.569" transform="translate(0 7.501) rotate(-8.855)" fill="#20352c"/>
            </g>
            <g id="组_426" data-name="组 426" transform="translate(25.943 90.647)">
              <path id="矩形_196" data-name="矩形 196" d="M3.246,0h0A3.246,3.246,0,0,1,6.492,3.246v5.4a3.263,3.263,0,0,1-3.263,3.263h0A3.229,3.229,0,0,1,0,8.684V3.246A3.246,3.246,0,0,1,3.246,0Z" transform="translate(0.482 0) rotate(0.89)" fill="#274238"/>
              <ellipse id="椭圆_645" data-name="椭圆 645" cx="3.245" cy="2.569" rx="3.245" ry="2.569" transform="translate(0 7.501) rotate(-8.855)" fill="#20352c"/>
            </g>
            <g id="组_427" data-name="组 427" transform="translate(34.346 89.546)">
              <path id="矩形_197" data-name="矩形 197" d="M3.246,0h0A3.246,3.246,0,0,1,6.492,3.246v5.4a3.263,3.263,0,0,1-3.263,3.263h0A3.229,3.229,0,0,1,0,8.684V3.246A3.246,3.246,0,0,1,3.246,0Z" transform="translate(0.482 0) rotate(0.89)" fill="#274238"/>
              <ellipse id="椭圆_646" data-name="椭圆 646" cx="3.245" cy="2.569" rx="3.245" ry="2.569" transform="translate(0 7.501) rotate(-8.855)" fill="#20352c"/>
            </g>
            <g id="组_428" data-name="组 428" transform="translate(42.748 88.446)">
              <path id="矩形_198" data-name="矩形 198" d="M3.246,0h0A3.246,3.246,0,0,1,6.492,3.246v5.4a3.263,3.263,0,0,1-3.263,3.263h0A3.229,3.229,0,0,1,0,8.684V3.246A3.246,3.246,0,0,1,3.246,0Z" transform="translate(0.482 0) rotate(0.89)" fill="#274238"/>
              <ellipse id="椭圆_647" data-name="椭圆 647" cx="3.245" cy="2.569" rx="3.245" ry="2.569" transform="translate(0 7.501) rotate(-8.855)" fill="#20352c"/>
            </g>
            <g id="组_429" data-name="组 429" transform="translate(51.15 87.345)">
              <path id="矩形_199" data-name="矩形 199" d="M3.246,0h0A3.246,3.246,0,0,1,6.492,3.246V9.033a2.88,2.88,0,0,1-2.88,2.88H3.229A3.229,3.229,0,0,1,0,8.684V3.246A3.246,3.246,0,0,1,3.246,0Z" transform="translate(0.482 0) rotate(0.89)" fill="#274238"/>
              <ellipse id="椭圆_648" data-name="椭圆 648" cx="3.245" cy="2.569" rx="3.245" ry="2.569" transform="translate(0 7.501) rotate(-8.855)" fill="#20352c"/>
            </g>
            <g id="组_430" data-name="组 430" transform="translate(59.552 86.245)">
              <path id="矩形_200" data-name="矩形 200" d="M3.246,0h0A3.246,3.246,0,0,1,6.492,3.246v5.4a3.263,3.263,0,0,1-3.263,3.263H2.88A2.88,2.88,0,0,1,0,9.033V3.246A3.246,3.246,0,0,1,3.246,0Z" transform="translate(0.482 0) rotate(0.89)" fill="#274238"/>
              <ellipse id="椭圆_649" data-name="椭圆 649" cx="3.245" cy="2.569" rx="3.245" ry="2.569" transform="translate(0 7.501) rotate(-8.855)" fill="#20352c"/>
            </g>
            <g id="组_431" data-name="组 431" transform="translate(67.954 85.144)">
              <path id="矩形_201" data-name="矩形 201" d="M3.246,0h0A3.246,3.246,0,0,1,6.492,3.246v5.4a3.263,3.263,0,0,1-3.263,3.263h0A3.229,3.229,0,0,1,0,8.684V3.246A3.246,3.246,0,0,1,3.246,0Z" transform="translate(0.482 0) rotate(0.89)" fill="#274238"/>
              <ellipse id="椭圆_650" data-name="椭圆 650" cx="3.245" cy="2.569" rx="3.245" ry="2.569" transform="translate(0 7.501) rotate(-8.855)" fill="#20352c"/>
            </g>
            <g id="组_432" data-name="组 432" transform="translate(76.356 84.044)">
              <path id="矩形_202" data-name="矩形 202" d="M3.246,0h0A3.246,3.246,0,0,1,6.492,3.246V9.033a2.88,2.88,0,0,1-2.88,2.88H3.229A3.229,3.229,0,0,1,0,8.684V3.246A3.246,3.246,0,0,1,3.246,0Z" transform="translate(0.482 0) rotate(0.89)" fill="#274238"/>
              <ellipse id="椭圆_651" data-name="椭圆 651" cx="3.245" cy="2.569" rx="3.245" ry="2.569" transform="translate(0 7.501) rotate(-8.855)" fill="#20352c"/>
            </g>
            <g id="组_433" data-name="组 433" transform="translate(84.758 82.943)">
              <path id="矩形_203" data-name="矩形 203" d="M3.246,0h0A3.246,3.246,0,0,1,6.492,3.246V9.033a2.88,2.88,0,0,1-2.88,2.88H3.229A3.229,3.229,0,0,1,0,8.684V3.246A3.246,3.246,0,0,1,3.246,0Z" transform="translate(0.482 0) rotate(0.89)" fill="#274238"/>
              <ellipse id="椭圆_652" data-name="椭圆 652" cx="3.245" cy="2.569" rx="3.245" ry="2.569" transform="translate(0 7.501) rotate(-8.855)" fill="#20352c"/>
            </g>
            <g id="组_434" data-name="组 434" transform="translate(93.16 81.843)">
              <path id="矩形_204" data-name="矩形 204" d="M3.246,0h0A3.246,3.246,0,0,1,6.492,3.246v5.4a3.263,3.263,0,0,1-3.263,3.263h0A3.229,3.229,0,0,1,0,8.684V3.246A3.246,3.246,0,0,1,3.246,0Z" transform="translate(0.482 0) rotate(0.89)" fill="#274238"/>
              <ellipse id="椭圆_653" data-name="椭圆 653" cx="3.245" cy="2.569" rx="3.245" ry="2.569" transform="translate(0 7.501) rotate(-8.855)" fill="#20352c"/>
            </g>
            <g id="组_435" data-name="组 435" transform="translate(101.563 80.743)">
              <path id="矩形_205" data-name="矩形 205" d="M3.246,0h0A3.246,3.246,0,0,1,6.492,3.246v5.4a3.263,3.263,0,0,1-3.263,3.263h0A3.229,3.229,0,0,1,0,8.684V3.246A3.246,3.246,0,0,1,3.246,0Z" transform="translate(0.482 0) rotate(0.89)" fill="#274238"/>
              <ellipse id="椭圆_654" data-name="椭圆 654" cx="3.245" cy="2.569" rx="3.245" ry="2.569" transform="translate(0 7.501) rotate(-8.855)" fill="#20352c"/>
            </g>
            <g id="组_436" data-name="组 436" transform="translate(109.965 79.642)">
              <path id="矩形_206" data-name="矩形 206" d="M3.246,0h0A3.246,3.246,0,0,1,6.492,3.246v5.4a3.263,3.263,0,0,1-3.263,3.263h0A3.229,3.229,0,0,1,0,8.684V3.246A3.246,3.246,0,0,1,3.246,0Z" transform="translate(0.482 0) rotate(0.89)" fill="#274238"/>
              <ellipse id="椭圆_655" data-name="椭圆 655" cx="3.245" cy="2.569" rx="3.245" ry="2.569" transform="translate(0 7.501) rotate(-8.855)" fill="#20352c"/>
            </g>
            <g id="组_437" data-name="组 437" transform="translate(118.367 78.542)">
              <path id="矩形_207" data-name="矩形 207" d="M3.246,0h0A3.246,3.246,0,0,1,6.492,3.246v5.4a3.263,3.263,0,0,1-3.263,3.263h0A3.229,3.229,0,0,1,0,8.684V3.246A3.246,3.246,0,0,1,3.246,0Z" transform="translate(0.483 0) rotate(0.89)" fill="#274238"/>
              <ellipse id="椭圆_656" data-name="椭圆 656" cx="3.245" cy="2.569" rx="3.245" ry="2.569" transform="translate(0 7.501) rotate(-8.855)" fill="#20352c"/>
            </g>
            <g id="组_438" data-name="组 438" transform="translate(126.769 77.441)">
              <path id="矩形_208" data-name="矩形 208" d="M3.246,0h0A3.246,3.246,0,0,1,6.492,3.246v5.4a3.263,3.263,0,0,1-3.263,3.263h0A3.229,3.229,0,0,1,0,8.684V3.246A3.246,3.246,0,0,1,3.246,0Z" transform="translate(0.482 0) rotate(0.89)" fill="#274238"/>
              <ellipse id="椭圆_657" data-name="椭圆 657" cx="3.245" cy="2.569" rx="3.245" ry="2.569" transform="translate(0 7.501) rotate(-8.855)" fill="#20352c"/>
            </g>
            <g id="组_439" data-name="组 439" transform="translate(135.171 76.341)">
              <path id="矩形_209" data-name="矩形 209" d="M3.246,0h0A3.246,3.246,0,0,1,6.492,3.246v5.4a3.263,3.263,0,0,1-3.263,3.263h0A3.229,3.229,0,0,1,0,8.684V3.246A3.246,3.246,0,0,1,3.246,0Z" transform="translate(0.482 0) rotate(0.89)" fill="#274238"/>
              <ellipse id="椭圆_658" data-name="椭圆 658" cx="3.245" cy="2.569" rx="3.245" ry="2.569" transform="translate(0 7.501) rotate(-8.855)" fill="#20352c"/>
            </g>
            <g id="组_440" data-name="组 440" transform="translate(143.573 75.24)">
              <path id="矩形_210" data-name="矩形 210" d="M3.246,0h0A3.246,3.246,0,0,1,6.492,3.246v5.4a3.263,3.263,0,0,1-3.263,3.263h0A3.229,3.229,0,0,1,0,8.684V3.246A3.246,3.246,0,0,1,3.246,0Z" transform="translate(0.482 0) rotate(0.89)" fill="#274238"/>
              <ellipse id="椭圆_659" data-name="椭圆 659" cx="3.245" cy="2.569" rx="3.245" ry="2.569" transform="translate(0 7.501) rotate(-8.855)" fill="#20352c"/>
            </g>
            <g id="组_441" data-name="组 441" transform="translate(151.975 74.14)">
              <path id="矩形_211" data-name="矩形 211" d="M3.246,0h0A3.246,3.246,0,0,1,6.492,3.246v5.4a3.263,3.263,0,0,1-3.263,3.263h0A3.229,3.229,0,0,1,0,8.684V3.246A3.246,3.246,0,0,1,3.246,0Z" transform="translate(0.483 0) rotate(0.89)" fill="#274238"/>
              <ellipse id="椭圆_660" data-name="椭圆 660" cx="3.245" cy="2.569" rx="3.245" ry="2.569" transform="translate(0 7.501) rotate(-8.855)" fill="#20352c"/>
            </g>
            <g id="组_442" data-name="组 442" transform="translate(160.377 73.039)">
              <path id="矩形_212" data-name="矩形 212" d="M3.246,0h0A3.246,3.246,0,0,1,6.492,3.246v5.4a3.263,3.263,0,0,1-3.263,3.263h0A3.229,3.229,0,0,1,0,8.684V3.246A3.246,3.246,0,0,1,3.246,0Z" transform="translate(0.482 0) rotate(0.89)" fill="#274238"/>
              <ellipse id="椭圆_661" data-name="椭圆 661" cx="3.245" cy="2.569" rx="3.245" ry="2.569" transform="translate(0 7.501) rotate(-8.855)" fill="#20352c"/>
            </g>
            <g id="组_443" data-name="组 443" transform="translate(168.779 71.939)">
              <path id="矩形_213" data-name="矩形 213" d="M3.246,0h0A3.246,3.246,0,0,1,6.492,3.246v5.4a3.263,3.263,0,0,1-3.263,3.263H2.88A2.88,2.88,0,0,1,0,9.033V3.246A3.246,3.246,0,0,1,3.246,0Z" transform="translate(0.482 0) rotate(0.89)" fill="#465952" stroke="#202623" stroke-miterlimit="10" stroke-width="1"/>
              <ellipse id="椭圆_662" data-name="椭圆 662" cx="3.245" cy="2.569" rx="3.245" ry="2.569" transform="translate(0 7.501) rotate(-8.855)" fill="#122427" stroke="#202623" stroke-miterlimit="10" stroke-width="1"/>
            </g>
            <g id="组_444" data-name="组 444" transform="translate(177.182 70.838)">
              <path id="矩形_214" data-name="矩形 214" d="M3.246,0h0A3.246,3.246,0,0,1,6.492,3.246V9.033a2.88,2.88,0,0,1-2.88,2.88H3.229A3.229,3.229,0,0,1,0,8.684V3.246A3.246,3.246,0,0,1,3.246,0Z" transform="translate(0.482 0) rotate(0.89)" fill="#465952" stroke="#202623" stroke-miterlimit="10" stroke-width="1"/>
              <ellipse id="椭圆_663" data-name="椭圆 663" cx="3.245" cy="2.569" rx="3.245" ry="2.569" transform="translate(0 7.501) rotate(-8.855)" fill="#122427" stroke="#202623" stroke-miterlimit="10" stroke-width="1"/>
            </g>
            <g id="组_445" data-name="组 445" transform="translate(185.584 69.738)">
              <path id="矩形_215" data-name="矩形 215" d="M3.246,0h0A3.246,3.246,0,0,1,6.492,3.246v5.4a3.263,3.263,0,0,1-3.263,3.263h0A3.229,3.229,0,0,1,0,8.684V3.246A3.246,3.246,0,0,1,3.246,0Z" transform="translate(0.482 0) rotate(0.89)" fill="#465952" stroke="#202623" stroke-miterlimit="10" stroke-width="1"/>
              <ellipse id="椭圆_664" data-name="椭圆 664" cx="3.245" cy="2.569" rx="3.245" ry="2.569" transform="translate(0 7.501) rotate(-8.855)" fill="#122427" stroke="#202623" stroke-miterlimit="10" stroke-width="1"/>
            </g>
            <g id="组_446" data-name="组 446" transform="translate(193.986 68.637)">
              <path id="矩形_216" data-name="矩形 216" d="M3.246,0h0A3.246,3.246,0,0,1,6.492,3.246V9.033a2.88,2.88,0,0,1-2.88,2.88H3.229A3.229,3.229,0,0,1,0,8.684V3.246A3.246,3.246,0,0,1,3.246,0Z" transform="translate(0.482 0) rotate(0.89)" fill="#465952" stroke="#202623" stroke-miterlimit="10" stroke-width="1"/>
              <ellipse id="椭圆_665" data-name="椭圆 665" cx="3.245" cy="2.569" rx="3.245" ry="2.569" transform="translate(0 7.501) rotate(-8.855)" fill="#122427" stroke="#202623" stroke-miterlimit="10" stroke-width="1"/>
            </g>
            <g id="组_447" data-name="组 447" transform="translate(202.388 67.537)">
              <path id="矩形_217" data-name="矩形 217" d="M3.246,0h0A3.246,3.246,0,0,1,6.492,3.246v5.4a3.263,3.263,0,0,1-3.263,3.263h0A3.229,3.229,0,0,1,0,8.684V3.246A3.246,3.246,0,0,1,3.246,0Z" transform="translate(0.482 0) rotate(0.89)" fill="#465952" stroke="#202623" stroke-miterlimit="10" stroke-width="1"/>
              <ellipse id="椭圆_666" data-name="椭圆 666" cx="3.245" cy="2.569" rx="3.245" ry="2.569" transform="translate(0 7.501) rotate(-8.855)" fill="#122427" stroke="#202623" stroke-miterlimit="10" stroke-width="1"/>
            </g>
            <g id="组_448" data-name="组 448" transform="translate(210.79 66.436)">
              <path id="矩形_218" data-name="矩形 218" d="M3.246,0h0A3.246,3.246,0,0,1,6.492,3.246v5.4a3.263,3.263,0,0,1-3.263,3.263h0A3.229,3.229,0,0,1,0,8.684V3.246A3.246,3.246,0,0,1,3.246,0Z" transform="translate(0.482 0) rotate(0.89)" fill="#465952" stroke="#202623" stroke-miterlimit="10" stroke-width="1"/>
              <ellipse id="椭圆_667" data-name="椭圆 667" cx="3.245" cy="2.569" rx="3.245" ry="2.569" transform="translate(0 7.501) rotate(-8.855)" fill="#122427" stroke="#202623" stroke-miterlimit="10" stroke-width="1"/>
            </g>
            <g id="组_449" data-name="组 449" transform="translate(219.192 65.336)">
              <path id="矩形_219" data-name="矩形 219" d="M3.246,0h0A3.246,3.246,0,0,1,6.492,3.246v5.4a3.263,3.263,0,0,1-3.263,3.263h0A3.229,3.229,0,0,1,0,8.684V3.246A3.246,3.246,0,0,1,3.246,0Z" transform="translate(0.482 0) rotate(0.89)" fill="#465952" stroke="#202623" stroke-miterlimit="10" stroke-width="1"/>
              <ellipse id="椭圆_668" data-name="椭圆 668" cx="3.245" cy="2.569" rx="3.245" ry="2.569" transform="translate(0 7.501) rotate(-8.855)" fill="#122427" stroke="#202623" stroke-miterlimit="10" stroke-width="1"/>
            </g>
            <g id="组_450" data-name="组 450" transform="translate(227.594 64.236)">
              <path id="矩形_220" data-name="矩形 220" d="M3.246,0h0A3.246,3.246,0,0,1,6.492,3.246v5.4a3.263,3.263,0,0,1-3.263,3.263H2.88A2.88,2.88,0,0,1,0,9.033V3.246A3.246,3.246,0,0,1,3.246,0Z" transform="translate(0.483 0) rotate(0.89)" fill="#465952" stroke="#202623" stroke-miterlimit="10" stroke-width="1"/>
              <ellipse id="椭圆_669" data-name="椭圆 669" cx="3.245" cy="2.569" rx="3.245" ry="2.569" transform="translate(0 7.501) rotate(-8.855)" fill="#122427" stroke="#202623" stroke-miterlimit="10" stroke-width="1"/>
            </g>
            <g id="组_451" data-name="组 451" transform="translate(235.996 63.135)">
              <path id="矩形_221" data-name="矩形 221" d="M3.246,0h0A3.246,3.246,0,0,1,6.492,3.246v5.4a3.263,3.263,0,0,1-3.263,3.263h0A3.229,3.229,0,0,1,0,8.684V3.246A3.246,3.246,0,0,1,3.246,0Z" transform="translate(0.482 0) rotate(0.89)" fill="#465952" stroke="#202623" stroke-miterlimit="10" stroke-width="1"/>
              <ellipse id="椭圆_670" data-name="椭圆 670" cx="3.245" cy="2.569" rx="3.245" ry="2.569" transform="translate(0 7.501) rotate(-8.855)" fill="#122427" stroke="#202623" stroke-miterlimit="10" stroke-width="1"/>
            </g>
            <g id="组_452" data-name="组 452" transform="translate(244.398 62.035)">
              <path id="矩形_222" data-name="矩形 222" d="M3.246,0h0A3.246,3.246,0,0,1,6.492,3.246V9.033a2.88,2.88,0,0,1-2.88,2.88H3.229A3.229,3.229,0,0,1,0,8.684V3.246A3.246,3.246,0,0,1,3.246,0Z" transform="translate(0.482 0) rotate(0.89)" fill="#465952" stroke="#202623" stroke-miterlimit="10" stroke-width="1"/>
              <ellipse id="椭圆_671" data-name="椭圆 671" cx="3.245" cy="2.569" rx="3.245" ry="2.569" transform="translate(0 7.501) rotate(-8.855)" fill="#122427" stroke="#202623" stroke-miterlimit="10" stroke-width="1"/>
            </g>
            <g id="组_453" data-name="组 453" transform="translate(252.801 60.934)">
              <path id="矩形_223" data-name="矩形 223" d="M3.246,0h0A3.246,3.246,0,0,1,6.492,3.246V9.033a2.88,2.88,0,0,1-2.88,2.88H3.229A3.229,3.229,0,0,1,0,8.684V3.246A3.246,3.246,0,0,1,3.246,0Z" transform="translate(0.482 0) rotate(0.89)" fill="#465952" stroke="#202623" stroke-miterlimit="10" stroke-width="1"/>
              <ellipse id="椭圆_672" data-name="椭圆 672" cx="3.245" cy="2.569" rx="3.245" ry="2.569" transform="translate(0 7.501) rotate(-8.855)" fill="#122427" stroke="#202623" stroke-miterlimit="10" stroke-width="1"/>
            </g>
          </g>
          <path id="路径_3537" data-name="路径 3537" d="M2913.372,552.78a42.407,42.407,0,0,0,6.034,4.933c3.279,2.15,125.78-22.35,125.78-22.35l-1.458-6.931Z" transform="translate(-2860.193 -495.626)" fill="#32564a"/>
          <path id="路径_3539" data-name="路径 3539" d="M2975.75,532.01l-50.083,21.75,10.486-1.91,47.707-21.281Z" transform="translate(-2869.414 -497.229)" fill="#345b4e"/>
          <path id="路径_3540" data-name="路径 3540" d="M3042.315,527.392l-42.117,19.76,11.951-2.232,35.416-18.586Z" transform="translate(-2925.312 -494.052)" fill="#345b4e"/>
          <path id="路径_3541" data-name="路径 3541" d="M3112.762,521.25l-29.857,17.54,10.19-1.956,24.083-16.5Z" transform="translate(-2987.343 -489.552)" fill="#345b4e"/>
          <path id="路径_3542" data-name="路径 3542" d="M3173.25,515.583l-18.917,15.583,7.656-1.392,15.261-15.108Z" transform="translate(-3040.913 -485.302)" fill="#345b4e"/>
          <path id="路径_3543" data-name="路径 3543" d="M3224.541,511.75l-10.1,14.022,4.886-.913,7.961-13.693Z" transform="translate(-3085.996 -482.677)" fill="#345b4e"/>
          <path id="路径_3544" data-name="路径 3544" d="M3256.587,507.417l-7.36,13.611,3.68-.7L3258.421,507Z" transform="translate(-3112.084 -479.552)" fill="#345b4e"/>
          <path id="路径_3545" data-name="路径 3545" d="M3281.087,505.25l-4.366,12.739,3.5-.654,2.864-12.669Z" transform="translate(-3132.704 -477.802)" fill="#345b4e"/>
          <path id="路径_3546" data-name="路径 3546" d="M3304.793,501.75l-2.609,12.55,3.6-.672.189-12.3Z" transform="translate(-3151.802 -475.302)" fill="#345b4e"/>
          <path id="路径_3547" data-name="路径 3547" d="M3325.083,498.583,3324,510.875l3.123-.552-.623-12.157Z" transform="translate(-3168.164 -472.927)" fill="#345b4e"/>
          <path id="路径_3548" data-name="路径 3548" d="M3340.5,496l.372,12.192,2.314-.432-.77-12.093Z" transform="translate(-3180.539 -471.052)" fill="#345b4e"/>
          <path id="路径_3549" data-name="路径 3549" d="M3357.333,492.292l.2,12.4,1.968-.368L3358.125,492Z" transform="translate(-3193.163 -468.302)" fill="#345b4e"/>
          <path id="路径_3550" data-name="路径 3550" d="M3371.166,492.34l.292,11.873,2.042-.333-1.167-11.424Z" transform="translate(-3203.538 -468.557)" fill="#345b4e"/>
          <path id="路径_3551" data-name="路径 3551" d="M3390.015,493.955v10.71l1.635-.305-.341-10.314Z" transform="translate(-3217.675 -469.769)" fill="#345b4e"/>
          <path id="路径_3552" data-name="路径 3552" d="M3405.657,494.994v9.72l1.544-.3v-9.325Z" transform="translate(-3229.406 -470.548)" fill="#345b4e"/>
          <path id="路径_3553" data-name="路径 3553" d="M3421.381,495.942l-.214,8.842,1.124-.294-.162-8.508Z" transform="translate(-3241.039 -471.259)" fill="#345b4e"/>
        </g>
        <text id="白露_" data-name="白露。" transform="translate(105.655 46.819)" fill="#33564a" font-size="8" font-family="STZhongsong"><tspan x="0" y="0">白露。</tspan></text>
        <path id="路径_3538" data-name="路径 3538" d="M3157.585,256.24v-2.168h0v-.75h-2.917v.75h2.165v2.168Z" transform="translate(-3023.071 -216.741)" fill="#33564a"/>
      </g>
    </g>
  </g>
</svg>
